g Mesh1
# Vertex Positions: 8
v -10 1 0
v 0 1 0
v 0 6 0
v -10 6 0
v 0 1 -11
v 0 6 -11
v -10 1 -11
v -10 6 -11
# Vertex UVs: 10
vt -4.5 0.5
vt 0.4999999 0.5
vt 0.5 3
vt -4.5 3
vt 6 0.5
vt 6 3
vt -5 0.5
vt -5 3
vt 5.5 0.5
vt 5.5 3
# Vertex Normals: 4
vn 0 0 -1
vn -1 0 0
vn 1 0 0
vn 0 0 1
# Faces: 4
f 4/4/1 3/3/1 2/2/1 1/1/1 
f 2/2/2 3/3/2 6/6/2 5/5/2 
f 8/8/3 4/3/3 1/2/3 7/7/3 
f 5/2/4 6/3/4 8/10/4 7/9/4 


g Mesh2
# Vertex Positions: 0
# Vertex UVs: 2
vt -4.5 -5.000006
vt 0.5 -5
# Vertex Normals: 1
vn 0 1 0
# Faces: 1
f 2/2/5 5/12/5 7/11/5 1/1/5 


