g Mesh1
# Vertex Positions: 80
v 11 0 -41
v -13 0 -41
v -13 27 -41
v 11 27 -41
v -14 20 -40
v -14 0 -40
v -14 0 -35
v -14 20 -35
v -14 21 -35
v -15 21 -35
v -15 27 -35
v -14 27 -35
v -14 21 -40
v -14 27 -40
v -15 0 -35
v -15 0 -42
v -15 27 -42
v 13 27 -42
v 13 27 -29
v 13 35 -35.5
v -15 27 -29
v -15 35 -35.5
v -15 21 -30
v -14 21 -30
v -14 27 -30
v -15 27 -30
v -6 10 -30
v -6 0 -30
v -6 0 -29
v -6 10 -29
v -13 10 -30
v -13 0 -30
v -13 20 -30
v -6 20 -30
v -13 21 -30
v -6 21 -30
v -6 27 -30
v -13 27 -30
v -15 0 -29
v -6 27 -29
v -15 0 -30
v 12 21 -30
v 13 21 -30
v 13 27 -30
v 12 27 -30
v 4 10 -29
v 4 0 -29
v 4 0 -30
v 4 10 -30
v 11 10 -30
v 11 0 -30
v 11 20 -30
v 4 20 -30
v 4 21 -30
v 11 21 -30
v 11 27 -30
v 4 27 -30
v 13 0 -29
v 4 27 -29
v 13 0 -30
v 12 20 -40
v 12 20 -35
v 12 0 -35
v 12 0 -40
v 13 21 -35
v 12 21 -35
v 12 27 -35
v 13 27 -35
v 12 21 -40
v 12 27 -40
v 13 0 -42
v 13 0 -35
v 12 20 -31
v 12 0 -31
v -14 20 -31
v -14 0 -31
v 13 -1 -29
v -15 -1 -29
v 13 -1 -42
v -15 -1 -42
# Vertex UVs: 94
vt 1.375 0
vt -1.625 0
vt -1.625 3.375
vt 1.375 3.375
vt 5 2.5
vt 5 0
vt 4.375 0
vt 4.375 2.5
vt -1.75 2.625
vt -1.875 2.625
vt -1.875 3.375
vt -1.75 3.375
vt 5 2.625
vt 4.375 2.625
vt 4.375 3.375
vt 5 3.375
vt -4.375001 0
vt -5.250001 0
vt -5.250001 3.375
vt -4.375001 3.375
vt 5.250001 3.375
vt 3.625001 3.375
vt 4.437501 4.375
vt -3.625001 3.375
vt -4.437501 4.375
vt 1.875 2.625
vt 1.75 2.625
vt 1.75 3.375
vt 1.875 3.375
vt 3.75 1.25
vt 3.75 0
vt 3.625 0
vt 3.625 1.25
vt 1.625 1.25
vt 1.625 0
vt 0.75 0
vt 0.75 1.25
vt 1.625 2.5
vt 0.75 2.5
vt 1.625 2.625
vt 0.75 2.625
vt 0.75 3.375
vt 1.625 3.375
vt -0.75 0
vt -1.875 0
vt -0.75 3.375
vt -3.625001 0
vt -3.750001 0
vt -3.750001 3.375
vt -1.5 2.625
vt -1.625 2.625
vt -1.5 3.375
vt -3.625 1.25
vt -3.75 1.25
vt -1.375 1.25
vt -0.5 1.25
vt -0.5 0
vt -1.375 0
vt -1.375 2.5
vt -0.5 2.5
vt -0.5 2.625
vt -1.375 2.625
vt -1.375 3.375
vt -0.5 3.375
vt 0.5 0
vt 0.5 3.375
vt 3.750001 3.375
vt -5 2.5
vt -4.375 2.5
vt -5 0
vt 1.5 2.625
vt 1.5 3.375
vt -4.375 2.625
vt -5 2.625
vt -5 3.375
vt 5.250001 0
vt -3.875 2.5
vt -3.875 0
vt 3.750001 2.625
vt 3.875 2.5
vt 3.875 0
vt -3.750001 2.625
vt 0.5 1.25
vt -0.75 1.25
vt -0.5 3.625
vt 0.75 3.625
vt 0.75 3.5
vt -0.5 3.5
vt 1.625 -0.125
vt -1.875 -0.125
vt 5.250001 -0.125
vt 3.625001 -0.125
vt -3.625001 -0.125
vt -5.250001 -0.125
# Vertex Normals: 5
vn 0 0 1
vn 1 0 0
vn -1 0 0
vn 0 0 -1
vn 0 -1 0
# Faces: 40
f 4/4/1 3/3/1 2/2/1 1/1/1 
f 8/8/2 7/7/2 6/6/2 5/5/2 
f 12/12/1 11/11/1 10/10/1 9/9/1 
f 14/16/2 12/15/2 9/14/2 13/13/2 
f 9/14/2 8/8/2 5/5/2 13/13/2 
f 11/20/3 17/19/3 16/18/3 15/17/3 
f 20/23/2 19/22/2 18/21/2 
f 22/25/3 17/19/3 21/24/3 
f 26/29/4 25/28/4 24/27/4 23/26/4 
f 30/33/2 29/32/2 28/31/2 27/30/2 
f 27/37/4 28/36/4 32/35/4 31/34/4 
f 34/39/4 27/37/4 31/34/4 33/38/4 
f 38/43/4 37/42/4 36/41/4 35/40/4 
f 25/28/4 38/43/4 35/40/4 24/27/4 
f 40/46/1 21/11/1 39/45/1 29/44/1 
f 21/24/3 26/49/3 41/48/3 39/47/3 
f 45/52/4 44/3/4 43/51/4 42/50/4 
f 49/54/3 48/48/3 47/47/3 46/53/3 
f 51/58/4 48/57/4 49/56/4 50/55/4 
f 50/55/4 49/56/4 53/60/4 52/59/4 
f 57/64/4 56/63/4 55/62/4 54/61/4 
f 56/63/4 45/52/4 42/50/4 55/62/4 
f 19/43/1 59/66/1 47/65/1 58/35/1 
f 44/67/2 19/22/2 58/32/2 60/31/2 
f 64/70/3 63/17/3 62/69/3 61/68/3 
f 68/43/1 67/72/1 66/71/1 65/40/1 
f 67/20/3 70/75/3 69/74/3 66/73/3 
f 61/68/3 62/69/3 66/73/3 69/74/3 
f 18/21/2 68/15/2 72/7/2 71/76/2 
f 62/69/3 63/17/3 74/78/3 73/77/3 
f 65/14/2 43/79/2 60/31/2 72/7/2 
f 76/81/2 7/7/2 8/8/2 75/80/2 
f 23/82/3 10/73/3 15/17/3 41/48/3 
f 53/60/4 49/56/4 27/37/4 34/39/4 
f 37/42/4 57/64/4 54/61/4 36/41/4 
f 59/66/1 40/46/1 30/84/1 46/83/1 
f 46/88/5 30/87/5 27/86/5 49/85/5 
f 58/35/1 39/45/1 78/90/1 77/89/1 
f 71/76/2 58/32/2 77/92/2 79/91/2 
f 39/47/3 16/18/3 80/94/3 78/93/3 


g Mesh2
# Vertex Positions: 32
v 4 20 -31
v 4 20 -35
v -6 20 -35
v -6 20 -31
v 11 20 -31
v 11 20 -35
v -13 20 -35
v -13 20 -31
v 4 27 -35
v -6 27 -35
v 11 27 -35
v -13 27 -35
v -6 27 -40
v 4 27 -40
v 4 27 -41
v -6 27 -41
v 11 27 -40
v -13 27 -40
v 4 0 -31
v -6 0 -31
v -6 0 -35
v 4 0 -35
v 11 0 -31
v 11 0 -35
v -13 0 -31
v -13 0 -35
v 4 0 -40
v -6 0 -40
v -6 0 -41
v 4 0 -41
v 11 0 -40
v -13 0 -40
# Vertex UVs: 68
vt -0.5000001 3.875
vt -0.5000001 4.375
vt 0.7500001 4.375
vt 0.7500001 3.875
vt 0.7500001 3.75
vt -0.5000001 3.75
vt -1.375 3.875
vt -1.375 4.375
vt -1.5 3.875
vt -1.5 4.375
vt -1.375 3.75
vt 1.625 4.375
vt 1.625 3.875
vt 1.625 3.75
vt 1.75 4.375
vt 1.75 3.875
vt 1.75 2.5
vt -1.5 2.5
vt -1.5 -4.375001
vt -1.5 -3.750001
vt 1.75 -3.750001
vt 1.75 -4.375001
vt -1.625 3.75
vt -1.625 4.375
vt -1.5 3.75
vt 1.75 3.75
vt 1.875 4.375
vt 1.875 3.75
vt 0.7500001 5
vt -0.5000001 5
vt -0.5000001 5.125
vt 0.7500001 5.125
vt -1.375 5
vt -1.5 5
vt -1.375 5.125
vt 1.625 5
vt 1.75 5
vt 1.625 5.125
vt -1.625 -4.375001
vt -1.625 -3.750001
vt 1.875 -3.750001
vt 1.875 -4.375001
vt -0.5000001 -3.875
vt 0.7500001 -3.875
vt 0.7500001 -4.375
vt -0.5000001 -4.375
vt -0.5000001 -3.75
vt 0.7500001 -3.75
vt -1.375 -3.875
vt -1.375 -4.375
vt -1.375 -3.75
vt -1.5 -3.875
vt -0.5000001 -3.625
vt 0.7500001 -3.625
vt 1.625 -3.875
vt 1.625 -4.375
vt 1.625 -3.75
vt 1.75 -3.875
vt -0.5000001 -5
vt 0.7500001 -5
vt 0.7500001 -5.125
vt -0.5000001 -5.125
vt -1.375 -5
vt -1.5 -5
vt -1.375 -5.125
vt 1.625 -5
vt 1.75 -5
vt 1.625 -5.125
# Vertex Normals: 1
vn 0 1 0
# Faces: 44
f 84/98/5 83/97/5 82/96/5 81/95/5 
f 53/100/5 34/99/5 84/98/5 81/95/5 
f 81/95/5 82/96/5 86/102/5 85/101/5 
f 86/102/5 62/104/5 73/103/5 85/101/5 
f 52/105/5 53/100/5 81/95/5 85/101/5 
f 88/107/5 87/106/5 83/97/5 84/98/5 
f 34/99/5 33/108/5 88/107/5 84/98/5 
f 75/110/5 8/109/5 87/106/5 88/107/5 
f 9/27/4 66/50/4 62/112/4 8/111/4 
f 9/116/6 24/115/6 42/114/6 66/113/6 
f 45/119/5 67/104/5 68/118/5 44/117/5 
f 26/122/5 11/121/5 12/109/5 25/120/5 
f 37/99/5 90/97/5 89/96/5 57/100/5 
f 89/96/5 91/102/5 56/105/5 57/100/5 
f 91/102/5 67/104/5 45/119/5 56/105/5 
f 92/106/5 90/97/5 37/99/5 38/108/5 
f 25/120/5 12/109/5 92/106/5 38/108/5 
f 94/124/5 89/96/5 90/97/5 93/123/5 
f 96/126/5 95/125/5 94/124/5 93/123/5 
f 91/102/5 89/96/5 94/124/5 97/127/5 
f 70/128/5 67/104/5 91/102/5 97/127/5 
f 95/125/5 4/129/5 97/127/5 94/124/5 
f 98/130/5 93/123/5 90/97/5 92/106/5 
f 12/109/5 14/131/5 98/130/5 92/106/5 
f 3/132/5 96/126/5 93/123/5 98/130/5 
f 66/113/6 42/114/6 43/134/6 65/133/6 
f 10/136/6 23/135/6 24/115/6 9/116/6 
f 102/140/6 101/139/6 100/138/6 99/137/6 
f 100/138/6 28/142/6 48/141/6 99/137/6 
f 104/144/6 102/140/6 99/137/6 103/143/6 
f 99/137/6 48/141/6 51/145/6 103/143/6 
f 74/146/6 63/113/6 104/144/6 103/143/6 
f 29/148/6 47/147/6 48/141/6 28/142/6 
f 100/138/6 101/139/6 106/150/6 105/149/6 
f 28/142/6 100/138/6 105/149/6 32/151/6 
f 106/150/6 7/116/6 76/152/6 105/149/6 
f 108/154/6 101/139/6 102/140/6 107/153/6 
f 110/156/6 109/155/6 108/154/6 107/153/6 
f 111/157/6 107/153/6 102/140/6 104/144/6 
f 63/113/6 64/158/6 111/157/6 104/144/6 
f 1/159/6 110/156/6 107/153/6 111/157/6 
f 106/150/6 101/139/6 108/154/6 112/160/6 
f 6/161/6 7/116/6 106/150/6 112/160/6 
f 109/155/6 2/162/6 112/160/6 108/154/6 


g Mesh3
# Vertex Positions: 0
# Vertex UVs: 8
vt 3.250001 9.810567
vt -3.750001 9.810567
vt -3.750001 12.38751
vt 3.250001 12.38751
vt 3.75 -1.382455
vt -3.25 -1.382455
vt -3.25 1.194486
vt 3.75 1.194486
# Vertex Normals: 2
vn 0 0.6305926 0.776114
vn 0 0.6305926 -0.7761139
# Faces: 2
f 20/166/7 22/165/7 21/164/7 19/163/7 
f 22/170/8 20/169/8 18/168/8 17/167/8 


g Mesh4
# Vertex Positions: 0
# Vertex UVs: 32
vt -0.5016675 3.30892
vt -0.4973044 3.558882
vt 6.251667 3.44108
vt 6.247304 3.191118
vt -13.50167 3.308921
vt -13.4973 3.558882
vt -6.748333 3.441079
vt -6.752697 3.191118
vt -6.751667 3.30892
vt -6.747304 3.558882
vt 0.0016675 3.44108
vt -0.00269556 3.191118
vt 6.748333 3.308921
vt 6.752697 3.558882
vt 13.50167 3.441079
vt 13.4973 3.191118
vt 5.123199 2.41865
vt 5.127563 2.668612
vt 10.1268 2.58135
vt 10.12244 2.331388
vt 0.8731995 2.41865
vt 0.8775625 2.668612
vt 5.876801 2.58135
vt 5.872437 2.331388
vt -10.1268 2.418649
vt -10.12244 2.668612
vt -5.123199 2.58135
vt -5.127562 2.331388
vt -5.376801 2.41865
vt -5.372437 2.668612
vt -0.3731995 2.58135
vt -0.3775625 2.331388
# Vertex Normals: 0
# Faces: 8
f 70/174/1 97/173/1 111/172/1 64/171/1 
f 97/178/3 4/177/3 1/176/3 111/175/3 
f 98/182/1 14/181/1 6/180/1 112/179/1 
f 3/186/2 98/185/2 112/184/2 2/183/2 
f 88/190/2 33/189/2 32/188/2 105/187/2 
f 75/194/4 88/193/4 105/192/4 76/191/4 
f 52/198/3 85/197/3 103/196/3 51/195/3 
f 85/202/4 73/201/4 74/200/4 103/199/4 


