g Mesh1
# Vertex Positions: 8
v 1 39 -22
v -1 39 -22
v -1 41 -22
v 1 41 -22
v 1 39 -24
v 1 41 -24
v -1 39 -24
v -1 41 -24
# Vertex UVs: 12
vt 0.25 9.75
vt -0.25 9.75
vt -0.25 10.25
vt 0.25 10.25
vt 6.000001 9.75
vt 5.5 9.75
vt 5.5 10.25
vt 6.000001 10.25
vt -5.5 9.75
vt -6.000001 9.75
vt -6.000001 10.25
vt -5.5 10.25
# Vertex Normals: 4
vn 0 0 1
vn 1 0 0
vn -1 0 0
vn 0 0 -1
# Faces: 4
f 4/4/1 3/3/1 2/2/1 1/1/1 
f 6/8/2 4/7/2 1/6/2 5/5/2 
f 3/12/3 8/11/3 7/10/3 2/9/3 
f 8/4/4 6/3/4 5/2/4 7/1/4 


g Mesh2
# Vertex Positions: 12
v 2 41 -22
v 1 41 -21
v 2 41 -21
v -2 41 -22
v -2 41 -21
v -1 41 -21
v 2 41 -24
v 2 41 -25
v 1 41 -25
v -1 41 -25
v -2 41 -25
v -2 41 -24
# Vertex UVs: 16
vt -1 11
vt -0.5 11
vt -0.5 10.5
vt -1 10.5
vt 0.5 11
vt 1 11
vt 1 10.5
vt 0.5 10.5
vt -0.5 12
vt -1 12
vt -1 12.5
vt -0.5 12.5
vt 0.5 12
vt 0.5 12.5
vt 1 12.5
vt 1 12
# Vertex Normals: 1
vn 0 -1 0
# Faces: 8
f 11/16/5 10/15/5 4/14/5 9/13/5 
f 14/20/5 13/19/5 12/18/5 3/17/5 
f 10/15/5 14/20/5 3/17/5 4/14/5 
f 17/24/5 16/23/5 15/22/5 6/21/5 
f 15/22/5 9/13/5 4/14/5 6/21/5 
f 20/28/5 19/27/5 18/26/5 8/25/5 
f 12/18/5 20/28/5 8/25/5 3/17/5 
f 18/26/5 17/24/5 6/21/5 8/25/5 


g Mesh3
# Vertex Positions: 1
v 0 43 -23
# Vertex UVs: 12
vt 0.5000001 10.96015
vt -0.5000001 10.96015
vt 0 11.66726
vt 6.25 6.894291
vt 5.25 6.894291
vt 5.75 7.601398
vt -5.25 6.894291
vt -6.25 6.894291
vt -5.75 7.601398
vt 0.5 2.828426
vt -0.5 2.828426
vt 0 3.535533
# Vertex Normals: 4
vn 0 0.7071068 0.7071067
vn 0.7071067 0.7071068 0
vn -0.7071067 0.7071068 0
vn 0 0.7071068 -0.7071067
# Faces: 4
f 21/31/6 13/30/6 11/29/6 
f 21/34/7 21/34/7 11/33/7 16/32/7 
f 21/37/8 21/37/8 19/36/8 13/35/8 
f 21/40/9 16/39/9 19/38/9 


