g Mesh1
# Vertex Positions: 114
v 3 4.768372E-07 3
v 3 -3 3
v 3 -3 13
v 3 4.768372E-07 13
v 3 4.768372E-07 -3
v 3 4.768372E-07 -8
v 3 -3 -8
v 3 -3 -3
v 3 12 13
v 3 12 3
v 3 12 -3
v 3 12 -8
v 3 -3 14
v -6 -3 14
v -6 12 14
v 3 12 14
v -11 -3 14
v -28 -3 14
v -28 12 14
v -11 12 14
v -28 -3 13
v -28 12 13
v -6 4.768372E-07 14
v -11 4.768372E-07 14
v -28 -3 2
v -28 12 2
v 3 -3 -15
v 3 -3 -14
v 3 12 -14
v 3 12 -15
v -28 -3 -14
v -28 -3 -15
v -28 12 -15
v -28 12 -14
v 3 4.768372E-07 -14
v 3 -11 -11
v 3 -11 -8
v 3 -5 -8
v 3 -5 -11
v 3 -11 3
v 3 -11 9.999996
v 3 -5 9.999996
v 3 -5 3
v 3 -11 -3
v 3 -5 -3
v 3 -11 -14
v 3 -5 -14
v 3 -11 -15
v 3 -5 -15
v 3 -11 13
v 3 -5 13
v 3 -11 14
v 3 -5 14
v -1 -11 14
v -1 -5 14
v -1 -11 -15
v -1 -5 -15
v -28 -11 14
v -28 -5 14
v -28 -11 10
v -28 -5 10
v -28 -3 -3
v -28 12 -3
v -28 4.768372E-07 2
v -28 4.768372E-07 -3
v -9 -11 -15
v -9 -5.000002 -15
v -28 -11 -11
v -28 -11 -15
v -28 -5 -15
v -28 -5 -11
v -14 -11 -15
v -14 -5 -15
v -14 -5.999998 -15
v -9 -5.999998 -15
v -6 -5 14
v -11 -5 14
v -28 -5 13
v -28 -5 2
v -28 -5 -3
v -27 -5 -15
v -27 -3 -15
v 3 -12 4.000004
v 3 -12 10
v 3 -11 4.000004
v 3 -12 -11
v 3 -12 -3.999992
v 3 -11 -3.999992
v 3 -12 3
v 3 -12 -3
v 3 -12 -15
v 3 -12 14
v -28 -12 14
v -28 -12 -15
v 3 28 0
v 3 31.42857 -3
v 3 33 -3
v 3 33 0
v 3 30.21428 3
v 3 24.57143 3
v 3 27.48387 0.4516144
v 3 31.2 3
v 3 33 3
v 3 27.51963 -0.4503479
v 3 24.8 -3
v 3 30.46154 -3
v 9 -12 3
v 9 33 3
v 9 -12 -3
v 9 33 -3
v -28 27 0
v 3 18.42857 -8
v 3 23.53846 3
v 3 23.78572 -3
# Vertex UVs: 128
vt -0.375 5.327165E-08
vt -0.375 -0.3749999
vt -1.625 -0.3749999
vt -1.625 5.327165E-08
vt 0.3750001 5.327165E-08
vt 1 5.327165E-08
vt 1 -0.3749999
vt 0.3750001 -0.3749999
vt -1.625 1.5
vt -0.375 1.5
vt 0.3750001 1.5
vt 1 1.5
vt -9.25 -0.375
vt -10.375 -0.375
vt -10.375 1.5
vt -9.25 1.5
vt -1.75 -0.3749999
vt -1.75 1.5
vt -11 -0.375
vt -13.125 -0.375
vt -13.125 1.5
vt -11 1.5
vt 1.75 -0.3749999
vt 1.625 -0.3749999
vt 1.625 1.5
vt 1.75 1.5
vt -10.375 0
vt -11 0
vt 0.2499996 -0.3749999
vt 0.2499996 1.5
vt 1.875 -0.3749999
vt 1.875 1.5
vt -1.875001 -0.3749999
vt -1.875001 1.5
vt 13.125 -0.375
vt 9.25 -0.375
vt 9.250001 1.5
vt 13.125 1.5
vt 1.75 5.960464E-08
vt 1.374999 -1.375
vt 0.9999991 -1.375
vt 0.9999991 -0.625
vt 1.374999 -0.625
vt -0.375001 -1.375
vt -1.250001 -1.375
vt -1.250001 -0.625
vt -0.375001 -0.625
vt 0.374999 -1.375
vt 0.374999 -0.625
vt 1.749999 -1.375
vt 1.749999 -0.625
vt 1.874999 -1.375
vt 1.874999 -0.625
vt -1.625001 -1.375
vt -1.625001 -0.625
vt -1.750001 -1.375
vt -1.750001 -0.625
vt -9.25 -1.375
vt -9.75 -1.375
vt -9.75 -0.625
vt -9.25 -0.625
vt 9.75 -1.375
vt 9.25 -1.375
vt 9.25 -0.625
vt 9.75 -0.625
vt -13.125 -1.375
vt -13.125 -0.625
vt 1.249998 -1.375
vt 1.249998 -0.625
vt 0.2499996 0
vt 10.75 -1.375
vt 10.75 -0.6250002
vt -1.375002 -1.375
vt -1.875002 -1.375
vt -1.875002 -0.625
vt -1.375002 -0.625
vt 13.125 -1.375
vt 11.375 -1.375
vt 11.375 -0.625
vt 13.125 -0.625
vt 11.375 -0.7499998
vt 10.75 -0.7499998
vt -10.375 -0.625
vt -11 -0.625
vt 1.625 -0.625
vt 0.2499996 -0.625
vt 13 -0.625
vt 13 -0.375
vt -0.5000014 -1.5
vt -1.250001 -1.5
vt -0.5000014 -1.375
vt 1.374999 -1.5
vt 0.4999982 -1.5
vt 0.4999982 -1.375
vt -0.3750012 -1.5
vt 0.3749989 -1.5
vt 1.874999 -1.5
vt -1.750001 -1.5
vt -9.25 -1.5
vt -13.125 -1.5
vt 1.749999 -1.5
vt -1.875001 -1.5
vt 13.125 -1.5
vt 9.25 -1.5
vt 0.3749999 2.25
vt 6.095286E-08 2.678572
vt 6.4075E-08 2.875
vt 0.3749999 2.875
vt 0.7499998 2.526786
vt 0.7499998 1.821429
vt 0.4314516 2.185484
vt 0.7499998 2.65
vt 0.7499998 2.875
vt 0.3187066 2.189954
vt 4.778307E-08 1.850001
vt 5.903154E-08 2.557693
vt -8.5 -1.5
vt -9.25 4.125
vt -8.5 4.125
vt -0.3750011 4.125
vt 0.374999 4.125
vt 8.5 -1.5
vt 8.5 4.125
vt 9.25 4.125
vt -4.172325E-07 3.375
vt 1 2.303571
vt -0.375 2.942307
vt 0.3750001 2.973214
# Vertex Normals: 4
vn 1 0 0
vn 0 0 1
vn -1 0 0
vn 0 0 -1
# Faces: 65
f 4/4/1 3/3/1 2/2/1 1/1/1 
f 8/8/1 7/7/1 6/6/1 5/5/1 
f 10/10/1 9/9/1 4/4/1 1/1/1 
f 12/12/1 11/11/1 5/5/1 6/6/1 
f 16/16/2 15/15/2 14/14/2 13/13/2 
f 9/9/1 16/18/1 13/17/1 3/3/1 
f 20/22/2 19/21/2 18/20/2 17/19/2 
f 19/26/3 22/25/3 21/24/3 18/23/3 
f 15/15/2 20/22/2 24/28/2 23/27/2 
f 22/25/3 26/30/3 25/29/3 21/24/3 
f 30/32/1 29/26/1 28/23/1 27/31/1 
f 34/18/3 33/34/3 32/33/3 31/17/3 
f 33/38/4 30/37/4 27/36/4 32/35/4 
f 29/26/1 12/12/1 6/6/1 35/39/1 
f 39/43/1 38/42/1 37/41/1 36/40/1 
f 43/47/1 42/46/1 41/45/1 40/44/1 
f 38/42/1 45/49/1 44/48/1 37/41/1 
f 47/51/1 39/43/1 36/40/1 46/50/1 
f 49/53/1 47/51/1 46/50/1 48/52/1 
f 42/46/1 51/55/1 50/54/1 41/45/1 
f 51/55/1 53/57/1 52/56/1 50/54/1 
f 53/61/2 55/60/2 54/59/2 52/58/2 
f 57/65/4 49/64/4 48/63/4 56/62/4 
f 55/60/2 59/67/2 58/66/2 54/59/2 
f 59/51/3 61/69/3 60/68/3 58/50/3 
f 63/10/3 34/18/3 31/17/3 62/2/3 
f 26/30/3 63/10/3 65/1/3 64/70/3 
f 67/72/4 57/65/4 56/62/4 66/71/4 
f 71/76/3 70/75/3 69/74/3 68/73/3 
f 70/80/4 73/79/4 72/78/4 69/77/4 
f 73/79/4 67/72/4 75/82/4 74/81/4 
f 61/69/3 71/76/3 68/73/3 60/68/3 
f 13/13/2 14/14/2 76/83/2 53/61/2 
f 3/3/1 13/17/1 53/57/1 51/55/1 
f 17/19/2 18/20/2 59/67/2 77/84/2 
f 18/23/3 21/24/3 78/85/3 59/51/3 
f 21/24/3 25/29/3 79/86/3 78/85/3 
f 62/2/3 32/33/3 70/75/3 80/47/3 
f 32/35/4 82/88/4 81/87/4 70/80/4 
f 27/31/1 28/23/1 47/51/1 49/53/1 
f 82/88/4 27/36/4 49/64/4 81/87/4 
f 2/2/1 3/3/1 51/55/1 43/47/1 
f 7/7/1 8/8/1 45/49/1 38/42/1 
f 85/91/1 41/45/1 84/90/1 83/89/1 
f 36/40/1 88/94/1 87/93/1 86/92/1 
f 40/44/1 85/91/1 83/89/1 89/95/1 
f 88/94/1 44/48/1 90/96/1 87/93/1 
f 48/52/1 36/40/1 86/92/1 91/97/1 
f 41/45/1 52/56/1 92/98/1 84/90/1 
f 52/58/2 58/66/2 93/100/2 92/99/2 
f 58/50/3 69/74/3 94/102/3 93/101/3 
f 69/77/4 48/63/4 91/104/4 94/103/4 
f 98/108/3 97/107/3 96/106/3 95/105/3 
f 101/111/3 100/110/3 99/109/3 
f 103/113/3 98/108/3 95/105/3 102/112/3 
f 95/105/3 101/111/3 99/109/3 102/112/3 
f 106/116/3 105/115/3 104/114/3 
f 96/106/3 106/116/3 104/114/3 95/105/3 
f 108/119/2 103/118/2 89/99/2 107/117/2 
f 110/121/1 108/120/1 107/95/1 109/96/1 
f 97/124/4 110/123/4 109/122/4 90/104/4 
f 111/125/3 34/18/3 22/25/3 
f 12/12/1 29/26/1 112/126/1 
f 113/127/1 9/9/1 10/10/1 
f 11/11/1 12/12/1 112/126/1 114/128/1 


g Mesh2
# Vertex Positions: 29
v 2 4.768372E-07 -8
v 2 -3 -8
v 2 -3 13
v 2 12 -8
v 2 12 13
v -6 -3 13
v -6 4.768372E-07 13
v 2 4.768372E-07 13
v -6 12 13
v -11 4.768372E-07 13
v -11 -3 13
v -27 4.768372E-07 13
v -27 -3 13
v -11 12 13
v -27 12 13
v -27 -3 2
v -27 4.768372E-07 2
v -27 12 2
v -27 4.768372E-07 -14
v 2 4.768372E-07 -14
v 2 -3 -14
v -27 -3 -14
v -27 12 -14
v 2 12 -14
v -27 4.768372E-07 -3
v -27 -3 -3
v -27 12 -3
v -27 27 0
v 2 27 0
# Vertex UVs: 57
vt 18.75 -0.25
vt 18.75 -1
vt 18.5 -1
vt 18.5 -0.25
vt -1 -0.3749999
vt -1 1.5
vt 3.499998 1.117587E-08
vt 3.499998 -0.75
vt 3.249998 -0.75
vt 3.249998 1.117587E-08
vt 10.375 5.587935E-09
vt 10.375 -0.375
vt 9.375 -0.375
vt 9.375 5.587935E-09
vt 9.375 1.5
vt 10.375 1.5
vt -3.250003 1.117587E-08
vt -3.250003 -0.75
vt -3.500003 -0.75
vt -3.500003 1.117587E-08
vt 13 5.587935E-09
vt 11 -0.375
vt 11 5.587935E-09
vt 11 1.5
vt 13 1.5
vt 1.5 5.25
vt 1.5 4
vt 1.249999 4
vt 1.249999 5.25
vt 26.25 -0.25
vt 26.25 -1
vt 26 -1
vt 26 -0.25
vt -0.2500004 -0.3749999
vt -0.2500004 1.5
vt -13 5.587935E-09
vt -9.375 5.587935E-09
vt -9.375 -0.375
vt -13 -0.375
vt -13 1.5
vt -9.374998 1.5
vt -9.25 5.587935E-09
vt -1 5.960464E-08
vt -1.75 5.960464E-08
vt 18.5 3.5
vt 18.75 3.5
vt 18.75 2
vt 18.5 2
vt -26 -0.25
vt -26 -1
vt -26.25 -1
vt -26.25 -0.25
vt -0.2500004 0
vt 26 0.7500001
vt 26.25 0.7500001
vt 26.25 -0.5000001
vt 26 -0.5000001
# Vertex Normals: 1
vn 0 -1 0
# Faces: 23
f 6/132/4 7/131/4 116/130/4 115/129/4 
f 119/25/3 118/134/3 116/133/3 117/24/3 
f 121/138/3 120/137/3 14/136/3 23/135/3 
f 122/142/4 117/141/4 120/140/4 121/139/4 
f 123/144/4 119/143/4 122/142/4 121/139/4 
f 24/148/1 17/147/1 125/146/1 124/145/1 
f 124/151/4 125/150/4 127/88/4 126/149/4 
f 129/153/4 128/152/4 124/151/4 126/149/4 
f 128/152/4 123/144/4 121/139/4 124/151/4 
f 23/157/5 24/156/5 124/155/5 121/154/5 
f 131/161/4 130/160/4 25/159/4 64/158/4 
f 132/163/1 129/9/1 127/3/1 130/162/1 
f 136/167/2 135/166/2 134/165/2 133/164/2 
f 138/169/2 137/168/2 133/164/2 134/165/2 
f 134/165/2 135/166/2 28/13/2 35/170/2 
f 118/134/3 138/18/3 134/172/3 115/171/3 
f 6/176/5 115/175/5 134/174/5 35/173/5 
f 65/180/2 62/179/2 140/178/2 139/177/2 
f 137/26/1 141/11/1 140/8/1 136/23/1 
f 141/11/1 132/163/1 131/181/1 139/5/1 
f 131/185/5 64/184/5 65/183/5 139/182/5 
f 142/125/1 129/9/1 137/26/1 
f 143/125/3 138/18/3 119/25/3 


g Mesh3
# Vertex Positions: 92
v -1 -11 -8
v -1 -11 -11
v -1 -5 -11
v -1 -5 -8
v 2 -5 -11
v 2 -5 -8
v -1 -11 9.999996
v -1 -11 3
v -1 -5 3
v -1 -5 9.999996
v 2 -5 3
v 2 -5 9.999996
v -1 -11 -3
v -1 -5 -3
v 2 -5 -3
v 2 -5 -14
v -1 -5 -14
v 2 -5 13
v -1 -5 13
v -11 -11 10
v -6 -11 10
v -6 -5 10
v -11 -5 10
v -11 -5 13
v -6 -5 13
v -24 -11 10
v -24 -5 10
v -24 -5 13
v -27 -5 10
v -27 -5 13
v -9 -5.999998 -14
v -9 -5.999998 -11
v -9 -11 -11
v -9 -11 -14
v -9 -5.000002 -11
v -9 -5.000002 -14
v -24 -5.999998 -11
v -14 -5.999998 -11
v -14 -11 -11
v -24 -11 -11
v -14 -5.999998 -14
v -14 -11 -14
v -24 -5 -11
v -14 -5 -11
v -24 -5 -14
v -14 -5 -14
v -27 -5 -14
v -27 -5 -11
v -27 -5 2
v -27 -5 -3
v -24 -5 -3
v -24 -5 2
v -14 -11 4.000004
v -9 -11 4.000004
v -9 -11 10
v -14 -11 10
v -14 -11 -3.999992
v -9 -11 -3.999992
v -24 -11 4.000004
v -17 -11 4.000004
v -17 -11 10
v -17 -11 -3.999992
v -24 -11 -3.999992
v -17 -11 -11
v -17 -11 3
v -24 -11 3
v -17 -11 -3
v -24 -11 -3
v -1 -11 4.000004
v -1 -11 -3.999992
v -9 -11 3
v -9 -11 -3
v -11 1 2.000004
v -9 1 2.000004
v -9 1 4.000004
v -11 1 4.000004
v -15 1 2.000004
v -15 1 4.000004
v -17 1 4.000004
v -17 1 2.000004
v -11 1 -1.999996
v -11 1 -3.999996
v -9 1 -3.999996
v -9 1 -1.999996
v -15 1 -3.999996
v -15 1 -1.999996
v -17 1 -1.999996
v -17 1 -3.999996
v -15 11 2.000004
v -11 11 2.000004
v -11 11 -1.999996
v -15 11 -1.999996
# Vertex UVs: 140
vt -2.000003 -2.75
vt -2.750003 -2.75
vt -2.750003 -1.25
vt -2.000003 -1.25
vt 18.75 -2.75
vt 18.75 -2
vt 19.5 -2
vt 19.5 -2.75
vt 2.499997 -2.75
vt 0.7499975 -2.75
vt 0.7499975 -1.25
vt 2.499997 -1.25
vt 18.75 0.75
vt 18.75 2.5
vt 19.5 2.5
vt 19.5 0.75
vt -0.7500027 -2.75
vt -0.7500027 -1.25
vt 18.75 -0.7500001
vt 19.5 -0.7500001
vt 18.5 -2.75
vt 18.5 -2
vt 18.75 -3.5
vt 19.5 -3.5
vt 18.5 -3.5
vt 18.75 3.25
vt 19.5 3.25
vt 22 -2.75
vt 20.75 -2.75
vt 20.75 -1.25
vt 22 -1.25
vt 22 3.25
vt 22 2.5
vt 20.75 2.5
vt 20.75 3.25
vt 25.25 -2.75
vt 25.25 -1.25
vt 25.25 3.25
vt 25.25 2.5
vt 20.75 3.5
vt 22 3.5
vt 19.5 -1.25
vt 26 2.5
vt 26 3.25
vt -3.500003 -1.5
vt -2.750003 -1.5
vt -3.500003 -2.75
vt -3.750004 -2.75
vt -3.750004 -1.5
vt 21.5 -2.75
vt 21.5 -3.5
vt -19.5 -2.75
vt -21.5 -2.75
vt -21.5 -1.25
vt -19.5 -1.25
vt -25.25 -1.5
vt -22.75 -1.5
vt -22.75 -2.75
vt -25.25 -2.75
vt 3.499998 -1.5
vt 3.499998 -2.75
vt 2.749998 -2.75
vt 2.749998 -1.5
vt 3.749998 -1.5
vt 3.749998 -2.75
vt -25.25 -1.25
vt -22.75 -1.25
vt 25.25 -3.5
vt 22.75 -3.5
vt 22.75 -2.75
vt 26 -3.5
vt 26 -2.75
vt -21.5 -1.5
vt 1 -2.25
vt -0.2499999 -2.25
vt -0.25 -1.25
vt 0.9999999 -1.25
vt 26 0.5000008
vt 26 -0.7499995
vt 25.25 -0.7499995
vt 25.25 0.5000008
vt 26.25 0.5000008
vt 26.25 -0.7499995
vt -2.500003 -2.75
vt -2.500003 -1.25
vt 2.749998 -1.25
vt 22.75 1.000001
vt 21.5 1.000001
vt 21.5 2.500001
vt 22.75 2.500001
vt 22.75 -0.9999981
vt 21.5 -0.9999981
vt 25.25 1.000001
vt 23.5 1.000001
vt 23.5 2.500001
vt 23.5 -0.9999981
vt 25.25 -0.9999981
vt 23.5 -2.75
vt 23.5 0.7500007
vt 25.25 0.7500007
vt 23.5 -0.7499995
vt 19.5 1.000001
vt 19.5 -0.9999981
vt 21.5 0.7500007
vt 21.5 -0.7499995
vt 22.75 -3.749999
vt 21.5 -3.749999
vt 22 0.5000001
vt 21.5 0.5000001
vt 22 1
vt 23 0.5000001
vt 23 1
vt 23.5 0.5000001
vt 22 -0.4999991
vt 22 -0.9999992
vt 21.5 -0.4999991
vt 23 -0.9999992
vt 23 -0.4999991
vt 23.5 -0.4999991
vt -23.5 -2.75
vt -23.5 0.25
vt -21.5 0.25
vt 0.9999966 -2.75
vt -1.000003 -2.75
vt -1.000003 0.25
vt 0.9999966 0.25
vt 21.5 0.25
vt 23.5 0.25
vt -22 0.25
vt -23 0.25
vt -23 2.75
vt -22 2.75
vt 0.4999965 0.25
vt -0.5000027 0.25
vt -0.5000027 2.75
vt 0.4999965 2.75
vt 23 0.25
vt 22 0.25
vt 22 2.75
vt 23 2.75
# Vertex Normals: 1
vn 0 1 0
# Faces: 70
f 147/189/3 146/188/3 145/187/3 144/186/3 
f 146/193/6 147/192/6 149/191/6 148/190/6 
f 153/197/3 152/196/3 151/195/3 150/194/3 
f 152/201/6 153/200/6 155/199/6 154/198/6 
f 157/203/3 147/189/3 144/186/3 156/202/3 
f 147/192/6 157/205/6 158/204/6 149/191/6 
f 152/196/3 157/203/3 156/202/3 151/195/3 
f 157/205/6 152/201/6 154/198/6 158/204/6 
f 38/207/6 39/206/6 148/190/6 149/191/6 
f 160/209/6 146/193/6 148/190/6 159/208/6 
f 148/190/6 39/206/6 47/210/6 159/208/6 
f 153/200/6 162/212/6 161/211/6 155/199/6 
f 166/216/4 165/215/4 164/214/4 163/213/4 
f 168/220/6 165/219/6 166/218/6 167/217/6 
f 170/222/4 166/216/4 163/213/4 169/221/4 
f 166/218/6 170/224/6 171/223/6 167/217/6 
f 77/226/6 76/225/6 168/220/6 167/217/6 
f 165/215/4 153/227/4 150/193/4 164/214/4 
f 162/212/6 153/200/6 165/219/6 168/220/6 
f 173/229/6 171/223/6 170/224/6 172/228/6 
f 177/232/3 176/187/3 175/231/3 174/230/3 
f 75/234/3 66/233/3 177/232/3 174/230/3 
f 179/236/6 178/235/6 146/193/6 160/209/6 
f 146/240/2 178/239/2 176/238/2 145/237/2 
f 183/244/2 182/243/2 181/242/2 180/241/2 
f 181/248/1 182/247/1 185/246/1 184/245/1 
f 185/246/1 72/250/1 74/249/1 184/245/1 
f 187/252/2 186/251/2 180/241/2 181/242/2 
f 186/221/6 187/255/6 189/254/6 188/253/6 
f 191/257/6 186/221/6 188/253/6 190/256/6 
f 189/254/6 187/255/6 178/235/6 179/236/6 
f 178/239/2 187/252/2 181/242/2 175/258/2 
f 175/262/5 181/261/5 74/260/5 75/259/5 
f 195/266/6 194/265/6 193/264/6 192/263/6 
f 194/265/6 186/221/6 191/257/6 193/264/6 
f 172/228/6 170/224/6 195/266/6 192/263/6 
f 80/268/6 79/267/6 192/263/6 193/264/6 
f 186/271/1 170/270/1 169/269/1 183/247/1 
f 199/275/6 198/274/6 197/273/6 196/272/6 
f 201/277/6 176/235/6 182/255/6 200/276/6 
f 169/224/6 204/280/6 203/279/6 202/278/6 
f 204/280/6 199/275/6 196/272/6 203/279/6 
f 207/283/6 183/221/6 206/282/6 205/281/6 
f 209/285/6 202/278/6 203/279/6 208/284/6 
f 206/282/6 211/265/6 210/286/6 205/281/6 
f 211/265/6 209/285/6 208/284/6 210/286/6 
f 200/276/6 182/255/6 207/283/6 205/281/6 
f 198/274/6 150/200/6 212/287/6 197/273/6 
f 213/288/6 145/193/6 176/235/6 201/277/6 
f 212/287/6 151/201/6 214/289/6 197/273/6 
f 156/205/6 213/288/6 201/277/6 215/290/6 
f 151/201/6 156/205/6 215/290/6 214/289/6 
f 182/255/6 176/235/6 66/292/6 72/291/6 
f 219/295/6 218/273/6 217/294/6 216/293/6 
f 223/298/6 222/279/6 221/297/6 220/296/6 
f 221/297/6 219/295/6 216/293/6 220/296/6 
f 227/301/6 226/277/6 225/300/6 224/299/6 
f 216/293/6 217/294/6 227/301/6 224/299/6 
f 231/281/6 230/304/6 229/303/6 228/302/6 
f 230/304/6 223/298/6 220/296/6 229/303/6 
f 224/299/6 225/300/6 228/302/6 229/303/6 
f 218/307/2 222/306/2 203/305/2 197/238/2 
f 226/311/1 218/310/1 197/309/1 201/308/1 
f 222/311/3 231/310/3 205/309/3 203/308/3 
f 231/313/4 226/312/4 201/235/4 205/283/4 
f 233/317/2 232/316/2 220/315/2 216/314/2 
f 234/321/1 233/320/1 216/319/1 224/318/1 
f 232/321/3 235/320/3 229/319/3 220/318/3 
f 235/325/4 234/324/4 224/323/4 229/322/4 
f 235/303/6 232/296/6 233/293/6 234/299/6 


g Mesh4
# Vertex Positions: 2
v -1 -3 13
v -27 -3 -11
# Vertex UVs: 38
vt 41.5 -3
vt 39 -3
vt 39 -2
vt 41.5 -2
vt 37.5 -3
vt 37.5 -2
vt 6.999996 -3
vt 6.499996 -3
vt 6.499996 -2
vt 6.999996 -2
vt 52 -3
vt 44 -3
vt 44 -2
vt 52 -2
vt -6.500006 -3
vt -7.000006 -3
vt -7.000006 -2
vt -6.500006 -2
vt -1.000006 -3
vt -1.000006 -2
vt 52.5 -3
vt 52.5 -2
vt 5.499994 -3
vt 1.499994 -3
vt 1.499994 -2
vt 5.499994 -2
vt -52 -3
vt -52.5 -3
vt -52.5 -2
vt -52 -2
vt -37 -3
vt -37 -2
vt -4.000005 -3
vt -4.000005 -2
vt 1 -3
vt 0.5 -3
vt 0.5 -2
vt 1 -2
# Vertex Normals: 0
# Faces: 13
f 120/329/4 236/328/4 162/327/4 168/326/4 
f 236/328/4 117/331/4 161/330/4 162/327/4 
f 14/335/3 120/334/3 168/333/3 76/332/3 
f 127/339/4 125/338/4 167/337/4 173/336/4 
f 125/343/1 17/342/1 77/341/1 167/340/1 
f 130/345/1 127/343/1 173/340/1 192/344/1 
f 25/347/4 130/339/4 192/336/4 79/346/4 
f 237/351/1 140/350/1 193/349/1 191/348/1 
f 136/335/1 237/351/1 191/348/1 190/332/1 
f 140/355/2 62/354/2 80/353/2 193/352/2 
f 28/357/2 136/355/2 190/352/2 47/356/2 
f 117/334/3 116/359/3 149/358/3 161/333/3 
f 116/363/4 7/362/4 38/361/4 149/360/4 


g Mesh5
# Vertex Positions: 2
v 5.599998 40 0
v -28 28 0
# Vertex UVs: 20
vt -8.5 3.643754
vt -9.25 3.643754
vt -8.925 4.595725
vt 0.3749989 7.424156
vt -0.3750012 7.424156
vt -1.188926E-06 8.39691
vt 0.3750004 0.6461558
vt -0.3749996 0.6461558
vt 3.657304E-07 1.579563
vt 9.25 3.643754
vt 8.5 3.643754
vt 8.925 4.595725
vt 0.375 -0.02351804
vt -3.5 -0.02351804
vt -3.5 2.634018
vt 0.375 2.634018
vt 3.5 -0.188084
vt -0.375 -0.188084
vt -0.375 2.55338
vt 3.5 2.55338
# Vertex Normals: 6
vn 0 0.3939193 0.919145
vn 0.8995081 0.4369041 0
vn -0.9374253 0.3481864 0
vn 0 0.3939193 -0.919145
vn 0 0.6585047 0.7525766
vn 0 0.6839413 -0.7295371
# Faces: 6
f 238/366/7 238/366/7 103/365/7 108/364/7 
f 238/369/8 108/368/8 110/367/8 
f 238/372/9 97/371/9 103/370/9 
f 238/375/10 238/375/10 110/374/10 97/373/10 
f 95/379/11 239/378/11 19/377/11 16/376/11 
f 239/383/12 95/382/12 30/381/12 33/380/12 


g Mesh6
# Vertex Positions: 3
v 3 13.14286 13
v 3 19.46667 -8
v 3 13.06667 -14
# Vertex UVs: 16
vt -6.5 6
vt -7 6
vt -6.5 6.571428
vt -1.5 11.76923
vt -1.5 12.28571
vt 6.999999 6
vt 6.499999 6
vt -1.66893E-06 13.5
vt -1.66893E-06 14
vt 1.5 12.4
vt 4.000001 9.733333
vt 4.000001 9.214285
vt 1.5 11.89286
vt 7.000001 6.533333
vt 7.500001 6
vt -7.500002 6
# Vertex Normals: 0
# Faces: 7
f 240/386/1 16/385/1 9/384/1 
f 100/388/1 240/386/1 9/384/1 113/387/1 
f 239/392/3 111/391/3 22/390/3 19/389/3 
f 114/396/1 112/395/1 241/394/1 105/393/1 
f 112/395/1 29/389/1 242/397/1 241/394/1 
f 29/389/1 30/398/1 242/397/1 
f 111/391/3 239/392/3 33/399/3 34/385/3 


g Mesh7
# Vertex Positions: 14
v -11 24.69231 2
v -6 24.69231 2
v -6 27 0
v -11 27 0
v -11 23.53846 3
v -6 23.53846 3
v -27 24.69231 2
v -27 23.53846 3
v 2 24.69231 2
v 2 23.53846 3
v 2 23.78572 -3
v -27 23.78572 -3
v 2 18.42857 -8
v -27 18.42857 -8
# Vertex UVs: 24
vt 1.375 2.16873
vt 0.75 2.16873
vt 0.75 2.55045
vt 1.375 2.55045
vt 1.375 1.977871
vt 1.375 0.06927135
vt 0.75 0.06927135
vt 0.75 1.977871
vt 3.375 2.16873
vt 3.375 2.55045
vt 3.375 1.977871
vt 3.375 0.06927135
vt -0.2499999 2.16873
vt -0.2499999 2.55045
vt -0.2499999 0.06927135
vt -0.2499999 1.977871
vt 0.2499999 1.917714
vt -3.375 1.917714
vt -3.375 2.467311
vt 0.2499999 2.467311
vt 0.2499999 1.001719
vt -3.375 1.001719
vt 0.2499999 -0.09747428
vt -3.375 -0.09747428
# Vertex Normals: 2
vn 0 -0.6549307 -0.755689
vn 0 -0.6823184 0.7310552
# Faces: 12
f 246/403/13 245/402/13 244/401/13 243/400/13 
f 248/407/13 123/406/13 128/405/13 247/404/13 
f 244/401/13 248/407/13 247/404/13 243/400/13 
f 142/409/13 246/403/13 243/400/13 249/408/13 
f 247/404/13 128/405/13 129/411/13 250/410/13 
f 243/400/13 247/404/13 250/410/13 249/408/13 
f 245/402/13 143/413/13 251/412/13 244/401/13 
f 252/415/13 119/414/13 123/406/13 248/407/13 
f 251/412/13 252/415/13 248/407/13 244/401/13 
f 143/419/14 142/418/14 254/417/14 253/416/14 
f 256/421/14 255/420/14 253/416/14 254/417/14 
f 137/423/14 138/422/14 255/420/14 256/421/14 


